<?xml version="1.0" standalone="no"?>
<!-- Generator: Adobe Fireworks 10, Export SVG Extension by Aaron Beall (http://fireworks.abeall.com) . Version: 0.6.1  -->
<!DOCTYPE svg PUBLIC "-//W3C//DTD SVG 1.1//EN" "http://www.w3.org/Graphics/SVG/1.1/DTD/svg11.dtd">
<svg id="Untitled-Page%201" viewBox="0 0 132 118" style="background-color:#ffffff00" version="1.1"
	xmlns="http://www.w3.org/2000/svg" xmlns:xlink="http://www.w3.org/1999/xlink" xml:space="preserve"
	x="0px" y="0px" width="132px" height="118px"
>
	<g>
		<g>
			<path d="M 83.5869 14.3594 C 83.5869 22.0283 77.3643 28.2466 69.6973 28.2466 C 62.0283 28.2466 55.8125 22.0283 55.8125 14.3594 C 55.8125 6.6899 62.0283 0.4722 69.6973 0.4722 C 77.3643 0.4722 83.5869 6.6899 83.5869 14.3594 Z" fill="#737779"/>
		</g>
		<path d="M 99.7188 55.0029 C 99.7188 57.7603 97.1309 59.9932 93.9346 59.9932 L 72.2998 59.9932 C 69.1094 59.9932 66.5205 57.7603 66.5205 55.0029 L 66.5205 55.0029 C 66.5205 52.251 69.1094 50.0171 72.2998 50.0171 L 93.9346 50.0171 C 97.1309 50.0171 99.7188 52.251 99.7188 55.0029 L 99.7188 55.0029 Z" fill="#737779"/>
		<path d="M 89.166 111.7666 C 89.166 114.8389 86.3652 117.332 82.9082 117.332 L 82.9082 117.332 C 79.4541 117.332 76.6514 114.8389 76.6514 111.7666 L 76.6514 77.6387 C 76.6514 74.5625 79.4541 72.0669 82.9082 72.0669 L 82.9082 72.0669 C 86.3652 72.0669 89.166 74.5625 89.166 77.6387 L 89.166 111.7666 Z" fill="#737779"/>
		<path d="M 89.166 77.0029 C 89.166 80.3081 86.2324 82.9917 82.6094 82.9917 L 38.6025 82.9917 C 34.9785 82.9917 32.041 80.3081 32.041 77.0029 L 32.041 77.0029 C 32.041 73.6997 34.9785 71.021 38.6025 71.021 L 82.6094 71.021 C 86.2324 71.021 89.166 73.6997 89.166 77.0029 L 89.166 77.0029 Z" fill="#737779"/>
		<path d="M 75.1074 52.6099 C 76.3945 55.3228 75.4893 58.4346 73.0908 59.5762 L 73.0908 59.5762 C 70.6836 60.7158 67.7031 59.4429 66.415 56.7427 L 56.3936 35.6265 C 55.1123 32.9199 56.0166 29.8052 58.415 28.666 L 58.415 28.666 C 60.8223 27.5244 63.8057 28.7949 65.0908 31.4985 L 75.1074 52.6099 Z" fill="#737779"/>
		<path d="M 44.959 78.0825 C 42.8418 82.4219 37.6211 84.2285 33.3066 82.1196 L 33.3066 82.1196 C 28.9873 80.0078 27.2109 74.7813 29.3271 70.4463 L 48.8447 30.5151 C 50.9648 26.1738 56.1816 24.3691 60.498 26.478 L 60.498 26.478 C 64.8115 28.5874 66.5967 33.8135 64.4785 38.1533 L 44.959 78.0825 Z" fill="#737779"/>
		<path d="M 25.3096 31.0635 L 25.3096 84.6934 L 66.5205 84.6934 L 66.5205 117.332 L 66.5205 117.332 " stroke="#737779" stroke-width="1" fill="none"/>
		<path d="M 25.3096 117.332 L 25.3096 84.6934 L 25.3096 84.6934 " stroke="#737779" stroke-width="1" fill="none"/>
		<path d="M 66.5205 62.5986 L 66.5205 62.5986 Z" fill="#6c6d6f"/>
		<path d="M 107.46 62.5986 L 66.5205 62.5986 L 66.5205 62.5986 " stroke="#737779" stroke-width="1" fill="none"/>
		<path d="M 89.166 39.4229 L 99.2402 59.7695 L 99.2402 59.7695 " stroke="#737779" stroke-width="1" fill="none"/>
	</g>
</svg>