<?xml version="1.0" standalone="no"?>
<!-- Generator: Adobe Fireworks 10, Export SVG Extension by Aaron Beall (http://fireworks.abeall.com) . Version: 0.6.1  -->
<!DOCTYPE svg PUBLIC "-//W3C//DTD SVG 1.1//EN" "http://www.w3.org/Graphics/SVG/1.1/DTD/svg11.dtd">
<svg id="Untitled-Page%201" viewBox="0 0 70 55" style="background-color:#ffffff00" version="1.1"
	xmlns="http://www.w3.org/2000/svg" xmlns:xlink="http://www.w3.org/1999/xlink" xml:space="preserve"
	x="0px" y="0px" width="70px" height="55px"
>
	<g id="Layer%201">
		<g visibility="hidden">
			<g>
				<path d="M 17.8301 37.543 C 17.8301 39.1997 19.1738 40.543 20.8301 40.543 L 49.5137 40.543 C 51.1699 40.543 52.5137 39.1997 52.5137 37.543 L 52.5137 17.293 C 52.5137 15.6362 51.1699 14.293 49.5137 14.293 L 20.8301 14.293 C 19.1738 14.293 17.8301 15.6362 17.8301 17.293 L 17.8301 37.543 Z" fill="#6c6d6f"/>
			</g>
			<g>
				<g>
					<path d="M 23.0459 21.6992 C 31.1299 21.6992 39.2139 21.6992 47.2979 21.6992 C 48.1035 21.6992 48.1035 20.4492 47.2979 20.4492 C 39.2139 20.4492 31.1299 20.4492 23.0459 20.4492 C 22.2402 20.4492 22.2402 21.6992 23.0459 21.6992 L 23.0459 21.6992 Z" fill="#ffffff"/>
				</g>
				<g>
					<path d="M 23.0459 28.043 C 31.1299 28.043 39.2139 28.043 47.2979 28.043 C 48.1035 28.043 48.1035 26.793 47.2979 26.793 C 39.2139 26.793 31.1299 26.793 23.0459 26.793 C 22.2402 26.793 22.2402 28.043 23.0459 28.043 L 23.0459 28.043 Z" fill="#ffffff"/>
				</g>
				<g>
					<path d="M 23.0459 34.3867 C 31.1299 34.3867 39.2139 34.3867 47.2979 34.3867 C 48.1035 34.3867 48.1035 33.1367 47.2979 33.1367 C 39.2139 33.1367 31.1299 33.1367 23.0459 33.1367 C 22.2402 33.1367 22.2402 34.3867 23.0459 34.3867 L 23.0459 34.3867 Z" fill="#ffffff"/>
				</g>
			</g>
		</g>
		<g visibility="hidden">
			<path d="M 30.2139 20.7686 C 33.6172 20.7686 36.376 18.0098 36.376 14.6055 C 36.376 11.2012 33.6172 8.4419 30.2139 8.4419 C 26.8096 8.4419 24.0508 11.2012 24.0508 14.6055 C 24.0508 18.0098 26.8096 20.7686 30.2139 20.7686 Z" fill="#6c6d6f"/>
			<path d="M 14.042 42.6201 L 19.458 42.6201 L 22.7373 30.7129 L 24.0693 30.7129 L 20.8652 42.6201 L 40.0225 42.6201 L 36.5898 30.7129 L 37.9883 30.7129 L 39.8193 36.5498 C 40.6855 39.0151 42.8701 39.585 44.5469 37.4839 L 51.1865 29.4663 C 53.2588 26.7734 49.5088 23.936 47.334 26.2979 L 43.4199 30.9785 C 43.4199 31.0566 42.6748 28.4102 42.6748 28.4102 C 41.7627 25.2617 38.7793 22.167 34.3057 22.167 L 25.8555 22.167 C 21.8779 22.167 18.7471 25.6479 18.0996 27.8335 L 14.0439 42.6201 L 14.042 42.6201 Z" fill="#6c6d6f"/>
			<path d="M 45.9355 45.9243 L 45.9355 43.1035 L 12.707 43.1035 L 12.707 45.9243 L 45.9355 45.9243 Z" fill="#6c6d6f"/>
			<path d="M 48.9883 28.7319 L 49.8086 29.0679 L 57.7295 9.6924 L 56.9072 9.356 L 48.9883 28.7319 Z" fill="#6c6d6f"/>
		</g>
		<g visibility="hidden">
			<g>
				<path d="M 41.1475 11.7852 C 41.1475 14.4468 38.9883 16.6045 36.3271 16.6045 C 33.666 16.6045 31.5088 14.4468 31.5088 11.7852 C 31.5088 9.1235 33.666 6.9658 36.3271 6.9658 C 38.9883 6.9658 41.1475 9.1235 41.1475 11.7852 Z" fill="#6c6d6f"/>
			</g>
			<path d="M 46.7461 25.8906 C 46.7461 26.8467 45.8477 27.6216 44.7393 27.6216 L 37.2305 27.6216 C 36.123 27.6216 35.2246 26.8467 35.2246 25.8906 L 35.2246 25.8906 C 35.2246 24.9351 36.123 24.1602 37.2305 24.1602 L 44.7393 24.1602 C 45.8477 24.1602 46.7461 24.9351 46.7461 25.8906 L 46.7461 25.8906 Z" fill="#6c6d6f"/>
			<path d="M 43.084 45.5889 C 43.084 46.6563 42.1123 47.5215 40.9121 47.5215 L 40.9121 47.5215 C 39.7139 47.5215 38.7412 46.6563 38.7412 45.5889 L 38.7412 33.7461 C 38.7412 32.6782 39.7139 31.8125 40.9121 31.8125 L 40.9121 31.8125 C 42.1123 31.8125 43.084 32.6782 43.084 33.7461 L 43.084 45.5889 Z" fill="#6c6d6f"/>
			<path d="M 43.084 33.5249 C 43.084 34.6724 42.0654 35.6025 40.8086 35.6025 L 25.5361 35.6025 C 24.2783 35.6025 23.2598 34.6724 23.2598 33.5249 L 23.2598 33.5249 C 23.2598 32.3784 24.2783 31.4482 25.5361 31.4482 L 40.8086 31.4482 C 42.0654 31.4482 43.084 32.3784 43.084 33.5249 L 43.084 33.5249 Z" fill="#6c6d6f"/>
			<path d="M 38.2051 25.0605 C 38.6514 26.0005 38.3369 27.0815 37.5049 27.4771 L 37.5049 27.4771 C 36.6699 27.8726 35.6348 27.4312 35.1885 26.4932 L 31.7109 19.165 C 31.2656 18.2266 31.5801 17.1455 32.4121 16.75 L 32.4121 16.75 C 33.2471 16.354 34.2832 16.7944 34.7285 17.7329 L 38.2051 25.0605 Z" fill="#6c6d6f"/>
			<path d="M 27.7422 33.8999 C 27.0068 35.4058 25.1953 36.0322 23.6982 35.3003 L 23.6982 35.3003 C 22.1992 34.5684 21.583 32.7544 22.3174 31.249 L 29.0898 17.3916 C 29.8262 15.8853 31.6367 15.2588 33.1348 15.9907 L 33.1348 15.9907 C 34.6318 16.7227 35.251 18.5366 34.5156 20.0425 L 27.7422 33.8999 Z" fill="#6c6d6f"/>
			<path d="M 20.9229 17.582 L 20.9229 36.1938 L 35.2246 36.1938 L 35.2246 47.5215 L 35.2246 47.5215 " stroke="#737779" stroke-width="1" fill="#6c6d6f"/>
			<path d="M 20.9229 47.5215 L 20.9229 36.1938 L 20.9229 36.1938 " stroke="#737779" stroke-width="1" fill="#6c6d6f"/>
			<path d="M 35.2246 28.5259 L 35.2246 28.5259 Z" fill="#6c6d6f"/>
			<path d="M 49.4326 28.5259 L 35.2246 28.5259 L 35.2246 28.5259 " stroke="#737779" stroke-width="1" fill="#6c6d6f"/>
			<path d="M 43.084 20.4829 L 46.5801 27.5444 L 46.5801 27.5444 " stroke="#737779" stroke-width="1" fill="#6c6d6f"/>
		</g>
		<g id="%20152222920">
			<path d="M 30.3896 21.5645 C 25.5107 24.3809 32.9541 38.3354 38.293 35.2529 C 39.2412 36.8955 42.2939 42.1846 43.2422 43.8262 C 40.9902 45.127 39.083 45.9463 36.4717 44.4536 C 29.2217 40.3091 21.2412 26.4912 21.4678 18.249 C 21.5469 15.3862 23.2334 14.2646 25.4395 12.9912 C 26.3877 14.6328 29.4414 19.9219 30.3896 21.564 L 30.3896 21.5645 Z" fill="#6c6d6f"/>
			<path d="M 32.4346 21.3311 C 31.9082 21.6357 31.2295 21.4541 30.9248 20.9268 L 26.2588 12.8447 C 25.9541 12.3174 26.1357 11.6392 26.6631 11.335 L 29.1162 9.9189 C 29.6436 9.6143 30.3213 9.7964 30.626 10.3232 L 35.292 18.4053 C 35.5967 18.9326 35.415 19.6108 34.8877 19.915 L 32.4346 21.3311 L 32.4346 21.3311 Z" fill="#6c6d6f"/>
			<path d="M 45.1826 43.4102 C 44.6553 43.7148 43.9775 43.5332 43.6729 43.0059 L 39.0068 34.9238 C 38.7021 34.3965 38.8838 33.7183 39.4111 33.4141 L 41.8633 31.998 C 42.3906 31.6938 43.0693 31.8755 43.374 32.4023 L 48.04 40.4844 C 48.3438 41.0117 48.1621 41.6904 47.6357 41.9941 L 45.1826 43.4102 L 45.1826 43.4102 Z" fill="#6c6d6f"/>
		</g>
	</g>
</svg>