<?xml version="1.0" standalone="no"?>
<!-- Generator: Adobe Fireworks 10, Export SVG Extension by Aaron Beall (http://fireworks.abeall.com) . Version: 0.6.1  -->
<!DOCTYPE svg PUBLIC "-//W3C//DTD SVG 1.1//EN" "http://www.w3.org/Graphics/SVG/1.1/DTD/svg11.dtd">
<svg id="Untitled-Page%201" viewBox="0 0 70 55" style="background-color:#ffffff00" version="1.1"
	xmlns="http://www.w3.org/2000/svg" xmlns:xlink="http://www.w3.org/1999/xlink" xml:space="preserve"
	x="0px" y="0px" width="70px" height="55px"
>
	<g>
		<g>
			<path d="M 17.8301 37.543 C 17.8301 39.1997 19.1738 40.543 20.8301 40.543 L 49.5137 40.543 C 51.1699 40.543 52.5137 39.1997 52.5137 37.543 L 52.5137 17.293 C 52.5137 15.6362 51.1699 14.293 49.5137 14.293 L 20.8301 14.293 C 19.1738 14.293 17.8301 15.6362 17.8301 17.293 L 17.8301 37.543 Z" fill="#6c6d6f"/>
		</g>
		<g>
			<g>
				<path d="M 23.0459 21.6992 C 31.1299 21.6992 39.2139 21.6992 47.2979 21.6992 C 48.1035 21.6992 48.1035 20.4492 47.2979 20.4492 C 39.2139 20.4492 31.1299 20.4492 23.0459 20.4492 C 22.2402 20.4492 22.2402 21.6992 23.0459 21.6992 L 23.0459 21.6992 Z" fill="#ffffff"/>
			</g>
			<g>
				<path d="M 23.0459 28.043 C 31.1299 28.043 39.2139 28.043 47.2979 28.043 C 48.1035 28.043 48.1035 26.793 47.2979 26.793 C 39.2139 26.793 31.1299 26.793 23.0459 26.793 C 22.2402 26.793 22.2402 28.043 23.0459 28.043 L 23.0459 28.043 Z" fill="#ffffff"/>
			</g>
			<g>
				<path d="M 23.0459 34.3867 C 31.1299 34.3867 39.2139 34.3867 47.2979 34.3867 C 48.1035 34.3867 48.1035 33.1367 47.2979 33.1367 C 39.2139 33.1367 31.1299 33.1367 23.0459 33.1367 C 22.2402 33.1367 22.2402 34.3867 23.0459 34.3867 L 23.0459 34.3867 Z" fill="#ffffff"/>
			</g>
		</g>
	</g>
</svg>