<?xml version="1.0" standalone="no"?>
<!-- Generator: Adobe Fireworks 10, Export SVG Extension by Aaron Beall (http://fireworks.abeall.com) . Version: 0.6.1  -->
<!DOCTYPE svg PUBLIC "-//W3C//DTD SVG 1.1//EN" "http://www.w3.org/Graphics/SVG/1.1/DTD/svg11.dtd">
<svg id="Untitled-Page%201" viewBox="0 0 40 30" style="background-color:#ffffff00" version="1.1"
	xmlns="http://www.w3.org/2000/svg" xmlns:xlink="http://www.w3.org/1999/xlink" xml:space="preserve"
	x="0px" y="0px" width="40px" height="30px"
>
	<g id="Layer%201">
		<g>
			<path d="M 36 30 L 4.0005 30 C 1.791 30 0 28.209 0 26 L 0 4 C 0 1.791 1.791 0 4.0005 0 L 36 0 C 38.209 0 40 1.791 40 4 L 40 26 C 40 28.209 38.209 30 36 30 Z" fill="#00274b"/>
			<path d="M 31.5 22.0342 L 8.5 22.0342 C 7.9482 22.0342 7.5 21.5859 7.5 21.0342 C 7.5 20.4824 7.9482 20.0342 8.5 20.0342 L 31.5 20.0342 C 32.0518 20.0342 32.5 20.4824 32.5 21.0342 C 32.5 21.5859 32.0518 22.0342 31.5 22.0342 Z" fill="#ffffff"/>
			<path d="M 31.5 22.0342 L 8.5 22.0342 C 7.9482 22.0342 7.5 21.5859 7.5 21.0342 C 7.5 20.4824 7.9482 20.0342 8.5 20.0342 L 31.5 20.0342 C 32.0518 20.0342 32.5 20.4824 32.5 21.0342 C 32.5 21.5859 32.0518 22.0342 31.5 22.0342 Z" stroke="#ffffff" stroke-width="1" fill="none"/>
			<path d="M 31.5 15.5342 L 8.5 15.5342 C 7.9482 15.5342 7.5 15.0864 7.5 14.5342 C 7.5 13.9824 7.9482 13.5342 8.5 13.5342 L 31.5 13.5342 C 32.0518 13.5342 32.5 13.9824 32.5 14.5342 C 32.5 15.0864 32.0518 15.5342 31.5 15.5342 Z" fill="#ffffff"/>
			<path d="M 31.5 15.5342 L 8.5 15.5342 C 7.9482 15.5342 7.5 15.0864 7.5 14.5342 C 7.5 13.9824 7.9482 13.5342 8.5 13.5342 L 31.5 13.5342 C 32.0518 13.5342 32.5 13.9824 32.5 14.5342 C 32.5 15.0864 32.0518 15.5342 31.5 15.5342 Z" stroke="#ffffff" stroke-width="1" fill="none"/>
			<path d="M 31.7471 9.0342 L 8.7471 9.0342 C 8.1953 9.0342 7.7471 8.5864 7.7471 8.0342 C 7.7471 7.4824 8.1953 7.0342 8.7471 7.0342 L 31.7471 7.0342 C 32.2988 7.0342 32.7471 7.4824 32.7471 8.0342 C 32.7471 8.5864 32.2988 9.0342 31.7471 9.0342 Z" fill="#ffffff"/>
			<path d="M 31.7471 9.0342 L 8.7471 9.0342 C 8.1953 9.0342 7.7471 8.5864 7.7471 8.0342 C 7.7471 7.4824 8.1953 7.0342 8.7471 7.0342 L 31.7471 7.0342 C 32.2988 7.0342 32.7471 7.4824 32.7471 8.0342 C 32.7471 8.5864 32.2988 9.0342 31.7471 9.0342 Z" stroke="#ffffff" stroke-width="1" fill="none"/>
		</g>
	</g>
</svg>