<?xml version="1.0" standalone="no"?>
<!-- Generator: Adobe Fireworks 10, Export SVG Extension by Aaron Beall (http://fireworks.abeall.com) . Version: 0.6.1  -->
<!DOCTYPE svg PUBLIC "-//W3C//DTD SVG 1.1//EN" "http://www.w3.org/Graphics/SVG/1.1/DTD/svg11.dtd">
<svg id="Untitled-Page%201" viewBox="0 0 20 20" style="background-color:#ffffff00" version="1.1"
	xmlns="http://www.w3.org/2000/svg" xmlns:xlink="http://www.w3.org/1999/xlink" xml:space="preserve"
	x="0px" y="0px" width="20px" height="20px"
>
	<g id="Layer%201">
		<g visibility="hidden">
			<path d="M 13.3994 16.9063 L 6.0049 16.9063 C 4.6592 16.9063 3.7461 16.0854 3.7461 14.7153 C 3.7461 12.8032 4.1934 9.8682 6.6729 9.8682 C 6.9346 9.8682 8.043 11.0435 9.7021 11.0435 C 11.3604 11.0435 12.4688 9.8682 12.7305 9.8682 C 15.21 9.8682 15.6582 12.8032 15.6582 14.7153 C 15.6582 16.0854 14.7441 16.9063 13.3994 16.9063 ZM 9.7021 10.4092 C 7.9072 10.4092 6.4531 8.9541 6.4531 7.1602 C 6.4531 5.3667 7.9072 3.9116 9.7021 3.9116 C 11.4941 3.9116 12.9492 5.3667 12.9492 7.1602 C 12.9492 8.9541 11.4941 10.4092 9.7021 10.4092 Z" fill="#a6a8ab"/>
		</g>
		<g>
			<path d="M 15.666 15.8696 C 15.666 16.4189 15.2197 16.8643 14.6719 16.8643 L 4.7295 16.8643 C 4.1807 16.8643 3.7373 16.4189 3.7373 15.8696 L 3.7373 9.9053 C 3.7373 9.3564 4.1807 8.9116 4.7295 8.9116 L 5.0605 8.9116 L 5.0605 6.9233 C 5.0605 4.3755 7.1543 2.2842 9.7021 2.2842 C 12.248 2.2842 14.3398 4.3755 14.3398 6.9233 L 14.3398 8.9116 L 14.6719 8.9116 C 15.2197 8.9116 15.666 9.3564 15.666 9.9053 L 15.666 15.8696 ZM 12.3535 8.9116 L 12.3535 6.9233 C 12.3535 5.4629 11.1621 4.272 9.7021 4.272 C 8.2412 4.272 7.0488 5.4629 7.0488 6.9233 L 7.0488 8.9116 L 12.3535 8.9116 Z" fill="#a6a8ab"/>
		</g>
	</g>
</svg>