<?xml version="1.0" standalone="no"?>
<!-- Generator: Adobe Fireworks 10, Export SVG Extension by Aaron Beall (http://fireworks.abeall.com) . Version: 0.6.1  -->
<!DOCTYPE svg PUBLIC "-//W3C//DTD SVG 1.1//EN" "http://www.w3.org/Graphics/SVG/1.1/DTD/svg11.dtd">
<svg id="Untitled-Page%201" viewBox="0 0 33 28" style="background-color:#ffffff00" version="1.1"
	xmlns="http://www.w3.org/2000/svg" xmlns:xlink="http://www.w3.org/1999/xlink" xml:space="preserve"
	x="0px" y="0px" width="33px" height="28px"
>
	<g id="Layer%201">
		<path d="M 22.5628 13.0944 C 24.1207 13.0944 25.3858 11.8317 25.3858 10.277 C 25.3858 8.7198 24.1207 7.4593 22.5628 7.4593 C 21.0013 7.4593 19.7362 8.7198 19.7362 10.277 C 19.7362 11.8317 21.0013 13.0944 22.5628 13.0944 Z" fill="#00425e"/>
		<path d="M 33 0.4556 L 32.9585 0.4556 C 30.8571 0.491 27.6261 1.2842 24.7007 2.4587 C 22.4447 0.9094 19.7176 0 16.7779 0 C 13.8081 0 11.0532 0.9302 8.7821 2.5103 C 5.8217 1.3081 2.529 0.4914 0.3976 0.4556 L 0.3553 0.4556 L 0.3604 0.4971 C 0.5895 2.2626 1.5875 6.2063 3.3968 9.8354 C 2.9872 11.147 2.766 12.5414 2.766 13.9862 C 2.766 21.6985 9.0521 27.9732 16.7779 27.9732 C 24.5045 27.9732 30.7884 21.6985 30.7884 13.9862 C 30.7884 12.4512 30.5371 10.9749 30.0767 9.5923 C 31.8094 6.0317 32.7716 2.2233 32.9943 0.4971 L 33 0.4556 ZM 26.9774 10.0265 C 26.9774 12.4394 25.0171 14.3942 22.6036 14.3942 C 20.1844 14.3942 18.2263 12.4394 18.2263 10.0265 C 18.2263 7.616 20.1844 5.6612 22.6036 5.6612 C 25.0171 5.6612 26.9774 7.616 26.9774 10.0265 ZM 16.7779 3.0804 C 18.3988 3.0804 19.9374 3.4386 21.3206 4.0736 C 18.9236 5.4555 17.3106 7.0094 16.6769 8.5777 C 16.0505 7.0277 14.4689 5.4923 12.1192 4.1226 C 13.5325 3.4544 15.1133 3.0804 16.7779 3.0804 ZM 10.5699 5.6612 C 12.9884 5.6612 14.9458 7.616 14.9458 10.0265 C 14.9458 12.4394 12.9884 14.3942 10.5699 14.3942 C 8.1507 14.3942 6.1925 12.4394 6.1925 10.0265 C 6.1925 7.616 8.1507 5.6612 10.5699 5.6612 ZM 16.7779 24.892 C 10.751 24.892 5.8474 19.9996 5.8474 13.9862 C 5.8474 13.887 5.8539 13.7897 5.856 13.6913 C 7.1397 15.2006 8.7034 16.3232 10.5133 16.3232 C 11.7348 16.3232 12.9841 15.805 14.2377 14.7854 C 14.5033 16.7023 15.7312 18.9695 16.4385 19.8876 L 16.4643 19.9209 L 16.4937 19.89 C 17.3371 19.0204 18.6902 16.6625 18.9945 14.6809 C 20.2882 15.7682 21.5805 16.3232 22.842 16.3232 L 22.8435 16.3232 C 24.7408 16.3232 26.3638 15.0868 27.6804 13.4666 C 27.689 13.6405 27.7084 13.8108 27.7084 13.9862 C 27.7084 19.9996 22.8041 24.892 16.7779 24.892 Z" fill="#00425e"/>
		<path d="M 10.5298 13.1308 C 12.107 13.1308 13.3886 11.8507 13.3886 10.277 C 13.3886 8.7026 12.107 7.4224 10.5298 7.4224 C 8.9532 7.4224 7.6702 8.7026 7.6702 10.277 C 7.6702 11.8507 8.9532 13.1308 10.5298 13.1308 Z" fill="#00425e"/>
	</g>
</svg>