<?xml version="1.0" standalone="no"?>
<!-- Generator: Adobe Fireworks 10, Export SVG Extension by Aaron Beall (http://fireworks.abeall.com) . Version: 0.6.1  -->
<!DOCTYPE svg PUBLIC "-//W3C//DTD SVG 1.1//EN" "http://www.w3.org/Graphics/SVG/1.1/DTD/svg11.dtd">
<svg id="Untitled-Page%201" viewBox="0 0 137 74" style="background-color:#ffffff00" version="1.1"
	xmlns="http://www.w3.org/2000/svg" xmlns:xlink="http://www.w3.org/1999/xlink" xml:space="preserve"
	x="0px" y="0px" width="137px" height="74px"
>
	<g>
		<path d="M 22.8074 27.3862 C 16.1183 27.3862 10.6434 29.569 6.3949 33.9368 C 2.1243 38.317 0 43.8867 0 50.6895 C 0 57.7572 2.0619 63.4077 6.193 67.6498 C 10.3033 71.8795 15.8527 74 22.8074 74 C 27.6695 74 31.8944 72.942 35.5013 70.8032 C 39.1026 68.6631 42.1296 65.4223 44.5688 61.0671 L 36.1886 56.404 C 34.5992 59.3807 32.7399 61.5516 30.5956 62.8923 C 28.4706 64.2331 25.7972 64.9059 22.5934 64.9059 C 18.9799 64.9059 16.0868 63.7674 13.9289 61.5019 C 11.7603 59.2232 10.5546 56.0758 10.3033 52.0173 L 45.0235 52.0173 L 45.0235 50.1487 C 45.0235 42.9554 43.0682 37.3669 39.1598 33.377 C 35.2564 29.3804 29.7951 27.3862 22.8074 27.3862 ZM 10.9455 45.3404 C 11.741 42.1433 13.1342 39.7515 15.1202 38.1664 C 17.1013 36.5866 19.731 35.7935 22.9972 35.7935 C 26.4523 35.7935 29.158 36.6056 31.144 38.2415 C 33.1243 39.865 34.3286 42.2385 34.7195 45.3404 L 10.9455 45.3404 Z" fill="#00425e"/>
		<path d="M 93.2438 0.4063 C 88.2127 0.4063 84.4912 1.7787 82.0956 4.5292 C 79.7058 7.2728 78.5015 11.5138 78.5015 17.2732 L 78.5015 28.8958 L 70.9024 28.8958 L 70.9024 37.5869 L 78.5015 37.5869 L 78.5015 72.2252 L 88.4454 72.2252 L 88.4454 37.5869 L 98.8883 37.5869 L 98.8883 28.8958 L 88.4454 28.8958 L 88.4454 18.5687 C 88.4454 15.0889 88.9616 12.6097 90.0091 11.1553 C 91.0372 9.6897 92.7447 8.9593 95.136 8.9593 C 95.9493 8.9593 96.7748 9.0666 97.576 9.2992 C 98.3893 9.5311 99.1847 9.8779 99.9794 10.3307 L 99.9794 1.3761 C 98.8239 1.0289 97.6826 0.7838 96.5422 0.6392 C 95.4195 0.4821 94.3227 0.4063 93.2438 0.4063 Z" fill="#00425e"/>
		<path d="M 53.0057 72.2252 L 62.9438 72.2252 L 62.9438 1.3761 L 53.0057 1.3761 L 53.0057 72.2252 Z" fill="#00425e"/>
		<path d="M 126.5628 13.0944 C 128.1207 13.0944 129.3858 11.8317 129.3858 10.277 C 129.3858 8.7198 128.1207 7.4593 126.5628 7.4593 C 125.0013 7.4593 123.7362 8.7198 123.7362 10.277 C 123.7362 11.8317 125.0013 13.0944 126.5628 13.0944 Z" fill="#00425e"/>
		<path d="M 137 0.4556 L 136.9585 0.4556 C 134.8571 0.491 131.6261 1.2842 128.7007 2.4587 C 126.4447 0.9094 123.7176 0 120.7779 0 C 117.8081 0 115.0532 0.9302 112.7821 2.5103 C 109.8217 1.3081 106.529 0.4914 104.3976 0.4556 L 104.3553 0.4556 L 104.3604 0.4971 C 104.5895 2.2626 105.5875 6.2063 107.3968 9.8354 C 106.9872 11.147 106.766 12.5414 106.766 13.9862 C 106.766 21.6985 113.0521 27.9732 120.7779 27.9732 C 128.5045 27.9732 134.7884 21.6985 134.7884 13.9862 C 134.7884 12.4512 134.5371 10.9749 134.0767 9.5923 C 135.8094 6.0317 136.7716 2.2233 136.9943 0.4971 L 137 0.4556 ZM 130.9774 10.0265 C 130.9774 12.4394 129.0171 14.3942 126.6036 14.3942 C 124.1844 14.3942 122.2263 12.4394 122.2263 10.0265 C 122.2263 7.616 124.1844 5.6612 126.6036 5.6612 C 129.0171 5.6612 130.9774 7.616 130.9774 10.0265 ZM 120.7779 3.0804 C 122.3988 3.0804 123.9374 3.4386 125.3206 4.0736 C 122.9236 5.4555 121.3106 7.0094 120.6769 8.5777 C 120.0505 7.0277 118.4689 5.4923 116.1192 4.1226 C 117.5325 3.4544 119.1133 3.0804 120.7779 3.0804 ZM 114.5699 5.6612 C 116.9884 5.6612 118.9458 7.616 118.9458 10.0265 C 118.9458 12.4394 116.9884 14.3942 114.5699 14.3942 C 112.1507 14.3942 110.1925 12.4394 110.1925 10.0265 C 110.1925 7.616 112.1507 5.6612 114.5699 5.6612 ZM 120.7779 24.892 C 114.751 24.892 109.8474 19.9996 109.8474 13.9862 C 109.8474 13.887 109.8539 13.7897 109.856 13.6913 C 111.1397 15.2006 112.7034 16.3232 114.5133 16.3232 C 115.7348 16.3232 116.9841 15.805 118.2377 14.7854 C 118.5033 16.7023 119.7312 18.9695 120.4385 19.8876 L 120.4643 19.9209 L 120.4937 19.89 C 121.3371 19.0204 122.6902 16.6625 122.9945 14.6809 C 124.2882 15.7682 125.5805 16.3232 126.842 16.3232 L 126.8435 16.3232 C 128.7408 16.3232 130.3638 15.0868 131.6804 13.4666 C 131.689 13.6405 131.7084 13.8108 131.7084 13.9862 C 131.7084 19.9996 126.8041 24.892 120.7779 24.892 Z" fill="#00425e"/>
		<path d="M 114.5298 13.1308 C 116.107 13.1308 117.3886 11.8507 117.3886 10.277 C 117.3886 8.7026 116.107 7.4224 114.5298 7.4224 C 112.9532 7.4224 111.6702 8.7026 111.6702 10.277 C 111.6702 11.8507 112.9532 13.1308 114.5298 13.1308 Z" fill="#00425e"/>
	</g>
</svg>