<?xml version="1.0" standalone="no"?>
<!-- Generator: Adobe Fireworks 10, Export SVG Extension by Aaron Beall (http://fireworks.abeall.com) . Version: 0.6.1  -->
<!DOCTYPE svg PUBLIC "-//W3C//DTD SVG 1.1//EN" "http://www.w3.org/Graphics/SVG/1.1/DTD/svg11.dtd">
<svg id="Untitled-Page%201" viewBox="0 0 36 36" style="background-color:#ffffff00" version="1.1"
	xmlns="http://www.w3.org/2000/svg" xmlns:xlink="http://www.w3.org/1999/xlink" xml:space="preserve"
	x="0px" y="0px" width="36px" height="36px"
>
	<g id="Layer%201">
		<g>
			<path d="M 24.8203 12.1992 C 27.8105 12.1992 30.7295 12.1992 33.6934 12.1992 C 33.7031 12.4141 33.7188 12.6094 33.7188 12.8037 C 33.7207 17.4854 33.7246 22.165 33.7207 26.8457 C 33.7188 30.4844 31.1055 33.0996 27.4629 33.1035 C 21.3086 33.1074 15.1563 33.1074 9.0049 33.1035 C 5.3633 33.0996 2.748 30.4854 2.7471 26.8457 C 2.7451 22.168 2.7471 17.4854 2.7471 12.8037 C 2.7471 12.626 2.7471 12.4453 2.7471 12.2207 C 5.709 12.2207 8.6426 12.2207 11.6504 12.2207 C 9.8711 14.6035 9.2725 17.2148 10.1211 20.0791 C 10.6934 22.0059 11.8496 23.5283 13.5068 24.6533 C 16.832 26.8994 21.1309 26.5049 24.1328 23.7012 C 26.5938 21.4033 28.123 16.6279 24.8203 12.1992 Z" fill="#929493"/>
			<path d="M 7.0684 9.3701 C 7.5156 9.3701 7.8721 9.3701 8.3066 9.3701 C 8.3066 6.9746 8.3066 4.5889 8.3066 2.167 C 8.6914 2.167 9.0049 2.167 9.3848 2.167 C 9.3848 4.5596 9.3848 6.9482 9.3848 9.3633 C 9.8057 9.3633 10.1631 9.3633 10.5879 9.3633 C 10.5879 6.9854 10.5879 4.5977 10.5879 2.1289 C 10.8672 2.1289 11.0781 2.1289 11.291 2.1289 C 16.6563 2.1289 22.0234 2.127 27.3877 2.1318 C 31.1387 2.1318 33.7148 4.7227 33.7188 8.4883 C 33.7188 9.2764 33.7188 10.0625 33.7188 10.9492 C 33.5078 10.9492 33.3184 10.9492 33.127 10.9492 C 30.083 10.9492 27.0371 10.9561 23.9912 10.9365 C 23.6953 10.9326 23.3516 10.8311 23.1113 10.6621 C 20.2041 8.6221 16.2559 8.6221 13.3516 10.6729 C 13.1641 10.8057 12.9258 10.9346 12.709 10.9365 C 9.6035 10.9521 6.4961 10.9492 3.3916 10.9492 C 3.209 10.9492 3.0283 10.9492 2.7852 10.9492 C 2.6914 8.3486 2.458 5.748 4.7539 3.7168 C 4.7539 5.624 4.7539 7.4609 4.7539 9.3447 C 5.1875 9.3447 5.5557 9.3447 6.0176 9.3447 C 6.0176 9.1514 6.0176 8.9395 6.0176 8.7246 C 6.0176 7.0313 6.0176 5.3389 6.0176 3.6445 C 6.0176 2.6924 6.0176 2.6924 7.0684 2.4336 C 7.0684 4.7285 7.0684 7.0146 7.0684 9.3701 ZM 28.5273 9.2715 C 28.9688 9.2715 29.4111 9.2793 29.8535 9.2686 C 30.5586 9.2549 30.9414 8.8877 30.9512 8.1953 C 30.9648 7.29 30.9648 6.3828 30.9512 5.4795 C 30.9414 4.7852 30.5596 4.4209 29.8486 4.4121 C 28.9648 4.4023 28.0771 4.4023 27.1943 4.4121 C 26.4814 4.4229 26.1035 4.7891 26.0938 5.4844 C 26.084 6.3896 26.084 7.2959 26.0957 8.2012 C 26.1035 8.8682 26.4766 9.2461 27.1367 9.2676 C 27.5977 9.2822 28.0635 9.2715 28.5273 9.2715 Z" fill="#929493"/>
			<path d="M 18.2295 10.4473 C 22.2344 10.4463 25.4795 13.6602 25.4883 17.6396 C 25.4961 21.6689 22.2705 24.9033 18.2402 24.9063 C 14.209 24.9063 10.9746 21.6738 10.9805 17.6504 C 10.9863 13.6699 14.2246 10.4502 18.2295 10.4473 ZM 12.1719 17.6221 C 12.1738 20.9688 14.9063 23.6875 18.2578 23.6758 C 21.6045 23.6641 24.3047 20.9375 24.2949 17.5762 C 24.2891 14.2637 21.5664 11.5576 18.2402 11.5537 C 14.8877 11.5508 12.168 14.2705 12.1719 17.6221 Z" fill="#929493"/>
			<path d="M 28.5273 9.2715 C 28.0635 9.2715 27.5977 9.2822 27.1367 9.2676 C 26.4766 9.2461 26.1035 8.8682 26.0957 8.2012 C 26.084 7.2959 26.084 6.3896 26.0938 5.4844 C 26.1035 4.7891 26.4814 4.4229 27.1943 4.4121 C 28.0771 4.4023 28.9648 4.4023 29.8486 4.4121 C 30.5596 4.4209 30.9414 4.7852 30.9512 5.4795 C 30.9648 6.3828 30.9648 7.29 30.9512 8.1953 C 30.9414 8.8877 30.5586 9.2549 29.8535 9.2686 C 29.4111 9.2793 28.9688 9.2715 28.5273 9.2715 Z" fill="#ffffff"/>
			<path d="M 12.1719 17.6221 C 12.168 14.2705 14.8877 11.5508 18.2402 11.5537 C 21.5664 11.5576 24.2891 14.2637 24.2949 17.5762 C 24.3047 20.9375 21.6045 23.6641 18.2578 23.6758 C 14.9063 23.6875 12.1738 20.9688 12.1719 17.6221 Z" fill="#ffffff"/>
		</g>
	</g>
</svg>