<?xml version="1.0" standalone="no"?>
<!-- Generator: Adobe Fireworks 10, Export SVG Extension by Aaron Beall (http://fireworks.abeall.com) . Version: 0.6.1  -->
<!DOCTYPE svg PUBLIC "-//W3C//DTD SVG 1.1//EN" "http://www.w3.org/Graphics/SVG/1.1/DTD/svg11.dtd">
<svg id="Untitled-Page%201" viewBox="0 0 36 36" style="background-color:#ffffff00" version="1.1"
	xmlns="http://www.w3.org/2000/svg" xmlns:xlink="http://www.w3.org/1999/xlink" xml:space="preserve"
	x="0px" y="0px" width="36px" height="36px"
>
	<g id="Layer%201">
		<path d="M 33.6543 27.3262 C 33.6543 30.5156 31.0645 33.1064 27.874 33.1064 L 8.6084 33.1064 C 5.418 33.1064 2.8281 30.5156 2.8281 27.3262 L 2.8281 8.0605 C 2.8281 4.8682 5.418 2.2822 8.6084 2.2822 L 27.874 2.2822 C 31.0645 2.2822 33.6543 4.8682 33.6543 8.0605 L 33.6543 27.3262 ZM 25.3672 24.3555 C 24.2012 25.0996 23.0361 25.4785 21.874 25.4785 C 21.2109 25.4785 20.6289 25.3379 20.1084 25.0186 C 19.7275 24.7969 19.4639 24.4951 19.3242 24.1162 C 19.1855 23.7344 19.1055 22.8701 19.1055 21.5254 L 19.1055 15.6045 L 24.6016 15.6045 L 24.6016 11.9746 L 19.1055 11.9746 L 19.1055 6.1328 L 15.8135 6.1328 C 15.6738 7.3193 15.4102 8.3008 15.0098 9.083 C 14.6289 9.8477 14.1094 10.5078 13.4434 11.0713 C 12.8037 11.6123 12.0205 12.0332 11.1182 12.3359 L 11.1182 15.6045 L 13.666 15.6045 L 13.666 23.7158 C 13.666 24.7773 13.7871 25.5801 14.0078 26.1426 C 14.2266 26.6836 14.6289 27.2256 15.1924 27.7051 C 15.7754 28.207 16.4766 28.5918 17.2793 28.8516 C 18.0801 29.1113 19.0254 29.251 20.0879 29.251 C 21.0107 29.251 21.874 29.1533 22.6758 28.9727 C 23.4785 28.792 24.3809 28.4512 25.3672 27.9863 L 25.3672 24.3555 Z" fill="#929493"/>
	</g>
</svg>