<?xml version="1.0" standalone="no"?>
<!-- Generator: Adobe Fireworks 10, Export SVG Extension by Aaron Beall (http://fireworks.abeall.com) . Version: 0.6.1  -->
<!DOCTYPE svg PUBLIC "-//W3C//DTD SVG 1.1//EN" "http://www.w3.org/Graphics/SVG/1.1/DTD/svg11.dtd">
<svg id="Untitled-Page%201" viewBox="0 0 36 36" style="background-color:#ffffff00" version="1.1"
	xmlns="http://www.w3.org/2000/svg" xmlns:xlink="http://www.w3.org/1999/xlink" xml:space="preserve"
	x="0px" y="0px" width="36px" height="36px"
>
	<g id="Layer%201">
		<path d="M 3.3613 27.4775 C 6.4795 27.6289 9.3379 26.9258 11.8691 25.0586 C 11.7129 24.7676 11.4902 24.8486 11.3145 24.8145 C 9.1797 24.4297 7.4961 23.4082 6.5313 21.3926 C 6.1943 20.6885 6.2715 20.5762 7.0313 20.6709 C 7.5928 20.7393 8.1279 20.6768 8.751 20.5068 C 8.4648 20.165 8.1191 20.1074 7.8281 19.9668 C 5.8662 18.999 4.6348 17.4707 4.2197 15.3086 C 4.1719 15.0732 4.0576 14.7939 4.2656 14.6172 C 4.4629 14.4502 4.668 14.6807 4.8633 14.7549 C 5.4141 14.9688 5.9668 15.1299 6.5771 15.0068 C 6.6152 14.6572 6.3193 14.5498 6.1455 14.3818 C 4.1455 12.3936 3.7676 10.0645 4.6768 7.4648 C 4.9395 6.7051 5.0117 6.6914 5.5244 7.292 C 7.2568 9.3184 9.3066 10.9248 11.7305 12.0449 C 13.418 12.8213 15.1914 13.1709 17.0332 13.2305 C 17.501 13.2441 17.7373 13.1016 17.6729 12.54 C 17.3584 9.79 18.4336 7.6875 20.8027 6.2949 C 22.8486 5.0908 25.8076 5.3965 27.7949 6.999 C 28.2949 7.4004 28.7197 7.499 29.3184 7.2949 C 30.2773 6.9697 31.2246 6.6211 32.3086 6.1367 C 31.834 7.5234 30.9629 8.4043 29.9326 9.3018 C 31.0469 9.3359 31.9219 8.8633 33.0107 8.6318 C 32.4922 9.541 31.8711 10.1953 31.1797 10.7197 C 30.2568 11.4229 30.0244 12.2559 29.9512 13.3848 C 29.6504 18.0889 27.957 22.2148 24.5352 25.5586 C 19.1289 30.8457 10.2412 31.8965 3.7959 27.9883 C 3.6348 27.8887 3.4844 27.7686 3.3281 27.6582 C 3.3398 27.5996 3.3516 27.5381 3.3613 27.4775 Z" fill="#929493"/>
	</g>
</svg>