<?xml version="1.0" standalone="no"?>
<!-- Generator: Adobe Fireworks 10, Export SVG Extension by Aaron Beall (http://fireworks.abeall.com) . Version: 0.6.1  -->
<!DOCTYPE svg PUBLIC "-//W3C//DTD SVG 1.1//EN" "http://www.w3.org/Graphics/SVG/1.1/DTD/svg11.dtd">
<svg id="Untitled-Page%201" viewBox="0 0 36 36" style="background-color:#ffffff00" version="1.1"
	xmlns="http://www.w3.org/2000/svg" xmlns:xlink="http://www.w3.org/1999/xlink" xml:space="preserve"
	x="0px" y="0px" width="36px" height="36px"
>
	<g id="Layer%201">
		<path id="fb-icon" d="M 8.6604 3 C 5.5248 3 3 5.5248 3 8.6604 L 3 28.3396 C 3 31.4752 5.5248 34 8.6604 34 L 19.3264 34 L 19.3264 21.8809 L 16.1217 21.8809 L 16.1217 17.5177 L 19.3264 17.5177 L 19.3264 13.7899 C 19.3264 10.8612 21.2198 8.1722 25.5816 8.1722 C 27.3476 8.1722 28.6535 8.3417 28.6535 8.3417 L 28.5508 12.4163 C 28.5508 12.4163 27.2189 12.4037 25.7656 12.4037 C 24.1927 12.4037 23.9405 13.1284 23.9405 14.3315 L 23.9405 17.5177 L 28.6757 17.5177 L 28.4694 21.881 L 23.9405 21.881 L 23.9405 34 L 28.3396 34 C 31.4752 34 34 31.4752 34 28.3396 L 34 8.6604 C 34 5.5248 31.4752 3 28.3396 3 L 8.6604 3 L 8.6604 3 Z" fill="#929493"/>
	</g>
</svg>