<?xml version="1.0" standalone="no"?>
<!-- Generator: Adobe Fireworks 10, Export SVG Extension by Aaron Beall (http://fireworks.abeall.com) . Version: 0.6.1  -->
<!DOCTYPE svg PUBLIC "-//W3C//DTD SVG 1.1//EN" "http://www.w3.org/Graphics/SVG/1.1/DTD/svg11.dtd">
<svg id="Untitled-Page%201" viewBox="0 0 36 36" style="background-color:#ffffff00" version="1.1"
	xmlns="http://www.w3.org/2000/svg" xmlns:xlink="http://www.w3.org/1999/xlink" xml:space="preserve"
	x="0px" y="0px" width="36px" height="36px"
>
	<g id="Layer%201">
		<path d="M 31.8779 31.8418 C 31.5156 33.3486 30.2998 34.4502 28.832 34.6016 C 25.332 35.0039 21.791 35.0039 18.2695 35.0039 C 14.751 35.0039 11.2109 35.0039 7.708 34.6016 C 6.2422 34.4502 5.0059 33.3486 4.6621 31.8418 C 4.1699 29.7109 4.1699 27.3711 4.1699 25.1816 C 4.1699 22.9746 4.1875 20.6533 4.6621 18.5234 C 5.0273 17.0195 6.2422 15.916 7.7295 15.7432 C 11.2109 15.3643 14.751 15.3643 18.2695 15.3643 C 21.791 15.3643 25.332 15.3643 28.832 15.7432 C 30.2998 15.916 31.5352 17.0195 31.8779 18.5234 C 32.374 20.6533 32.374 22.9746 32.374 25.1816 C 32.374 27.3711 32.3516 29.7109 31.8779 31.8418 L 31.8779 31.8418 ZM 12.2197 20.4463 L 12.2197 18.6553 L 6.2793 18.6553 L 6.2793 20.4463 L 8.2793 20.4463 L 8.2793 31.2695 L 10.1816 31.2695 L 10.1816 20.4463 L 12.2197 20.4463 ZM 15.3203 0.9004 L 13.0176 8.4912 L 13.0176 13.6504 L 11.1152 13.6504 L 11.1152 8.4912 C 10.9434 7.5596 10.5645 6.2285 9.9551 4.458 C 9.5352 3.2783 9.1172 2.0801 8.7188 0.9004 L 10.7344 0.9004 L 12.0859 5.9063 L 13.3789 0.9004 L 15.3203 0.9004 ZM 17.3555 31.2695 L 17.3555 21.8711 L 15.6641 21.8711 L 15.6641 29.0645 C 15.2852 29.5977 14.9199 29.8643 14.5791 29.8643 C 14.3496 29.8643 14.2168 29.7314 14.1816 29.4648 C 14.1611 29.4092 14.1611 29.1982 14.1611 28.7979 L 14.1611 21.8711 L 12.4668 21.8711 L 12.4668 29.3105 C 12.4668 29.9785 12.5254 30.416 12.6191 30.7012 C 12.7705 31.1748 13.1709 31.4063 13.7227 31.4063 C 14.332 31.4063 14.9785 31.0234 15.6641 30.2451 L 15.6641 31.2695 L 17.3555 31.2695 ZM 20.4229 10.5674 C 20.4229 11.5752 20.252 12.3379 19.8877 12.8125 C 19.4141 13.4609 18.7461 13.7842 17.8711 13.7842 C 17.0137 13.7842 16.3496 13.4609 15.875 12.8125 C 15.5107 12.3203 15.3389 11.5752 15.3389 10.5674 L 15.3389 7.2363 C 15.3389 6.2285 15.5107 5.4863 15.875 5.0107 C 16.3496 4.3643 17.0137 4.041 17.8711 4.041 C 18.7461 4.041 19.4141 4.3643 19.8877 5.0107 C 20.252 5.4863 20.4229 6.2285 20.4229 7.2363 L 20.4229 10.5674 ZM 18.6895 6.8945 C 18.6895 6.0195 18.4404 5.583 17.8711 5.583 C 17.3193 5.583 17.0527 6.0195 17.0527 6.8945 L 17.0527 10.8906 C 17.0527 11.7666 17.3193 12.2227 17.8711 12.2227 C 18.4404 12.2227 18.6895 11.7666 18.6895 10.8906 L 18.6895 6.8945 ZM 23.8281 24.707 C 23.8281 23.8311 23.79 23.2031 23.6582 22.8232 C 23.4473 22.1182 22.9707 21.7568 22.3057 21.7568 C 21.6797 21.7568 21.0889 22.0996 20.5352 22.7842 L 20.5352 18.6553 L 18.8418 18.6553 L 18.8418 31.2695 L 20.5352 31.2695 L 20.5352 30.3574 C 21.1055 31.0615 21.6953 31.4063 22.3057 31.4063 C 22.9707 31.4063 23.4473 31.043 23.6582 30.3574 C 23.79 29.957 23.8281 29.332 23.8281 28.457 L 23.8281 24.707 ZM 22.1348 28.5908 C 22.1348 29.4434 21.8867 29.8643 21.3926 29.8643 C 21.1055 29.8643 20.8223 29.7314 20.5352 29.4434 L 20.5352 23.7168 C 20.8223 23.4307 21.1055 23.2979 21.3926 23.2979 C 21.8867 23.2979 22.1348 23.7383 22.1348 24.5752 L 22.1348 28.5908 ZM 26.7969 13.6504 L 25.0645 13.6504 L 25.0645 12.6035 C 24.3799 13.4023 23.7344 13.7842 23.1035 13.7842 C 22.5547 13.7842 22.1504 13.5557 21.9824 13.0791 C 21.8867 12.7939 21.8311 12.3379 21.8311 11.6504 L 21.8311 4.1543 L 23.5605 4.1543 L 23.5605 11.1396 C 23.5605 11.5391 23.5605 11.7666 23.5801 11.8066 C 23.6152 12.0713 23.75 12.2227 23.9814 12.2227 C 24.3242 12.2227 24.6855 11.958 25.0645 11.4043 L 25.0645 4.1543 L 26.7969 4.1543 L 26.7969 13.6504 ZM 30.2598 28.0176 L 28.5293 28.0176 C 28.5293 28.7021 28.5088 29.0859 28.4893 29.1797 C 28.3965 29.6348 28.1484 29.8643 27.7285 29.8643 C 27.1387 29.8643 26.8545 29.4258 26.8545 28.5518 L 26.8545 26.8965 L 30.2598 26.8965 L 30.2598 24.9355 C 30.2598 23.9258 30.0898 23.2031 29.7461 22.7295 C 29.2529 22.0801 28.5859 21.7568 27.7285 21.7568 C 26.8545 21.7568 26.1865 22.0801 25.6924 22.7295 C 25.332 23.2031 25.1602 23.9258 25.1602 24.9355 L 25.1602 28.2285 C 25.1602 29.2363 25.3516 29.9785 25.7129 30.4336 C 26.2061 31.083 26.873 31.4063 27.7676 31.4063 C 28.6621 31.4063 29.3662 31.0615 29.8213 30.3975 C 30.0332 30.0928 30.1816 29.75 30.2246 29.3672 C 30.2598 29.1982 30.2598 28.8193 30.2598 28.2646 L 30.2598 28.0176 ZM 28.5664 25.4668 L 26.8545 25.4668 L 26.8545 24.5928 C 26.8545 23.7383 27.1387 23.2979 27.709 23.2979 C 28.2793 23.2979 28.5664 23.7383 28.5664 24.5928 L 28.5664 25.4668 Z" fill="#929493"/>
	</g>
</svg>