<?xml version="1.0" standalone="no"?>
<!-- Generator: Adobe Fireworks 10, Export SVG Extension by Aaron Beall (http://fireworks.abeall.com) . Version: 0.6.1  -->
<!DOCTYPE svg PUBLIC "-//W3C//DTD SVG 1.1//EN" "http://www.w3.org/Graphics/SVG/1.1/DTD/svg11.dtd">
<svg id="Untitled-Page%201" viewBox="0 0 53 54" style="background-color:#ffffff00" version="1.1"
	xmlns="http://www.w3.org/2000/svg" xmlns:xlink="http://www.w3.org/1999/xlink" xml:space="preserve"
	x="0px" y="0px" width="53px" height="54px"
>
	<g id="Layer%201">
		<g>
			<g opacity="0.302">
				<path d="M 26.3379 0.709 C 11.7207 0.709 -0.1289 12.5586 -0.1289 27.1758 C -0.1289 41.793 11.7207 53.6426 26.3379 53.6426 C 40.9551 53.6426 52.8047 41.793 52.8047 27.1758 C 52.8047 12.5586 40.9551 0.709 26.3379 0.709 Z" fill="#221e1f"/>
			</g>
			<g>
				<path d="M 43.2266 32.8906 C 38.0391 26.8115 32.8506 20.7324 27.6621 14.6543 C 26.8262 13.6748 24.9629 13.6748 24.127 14.6543 C 18.9375 20.7324 13.749 26.8115 8.5605 32.8906 C 6.4805 35.3281 10 38.8818 12.0957 36.4258 C 16.6953 31.0381 21.2949 25.6494 25.8945 20.2598 C 30.4932 25.6494 35.0918 31.0381 39.6914 36.4258 C 41.7871 38.8818 45.3066 35.3281 43.2266 32.8906 Z" fill="#ffffff"/>
			</g>
		</g>
		<g>
			<path d="M 26.3379 0.709 C 11.7207 0.709 -0.1289 12.5586 -0.1289 27.1758 C -0.1289 41.793 11.7207 53.6426 26.3379 53.6426 C 40.9551 53.6426 52.8047 41.793 52.8047 27.1758 C 52.8047 12.5586 40.9551 0.709 26.3379 0.709 Z" fill="#999999"/>
		</g>
		<g>
			<path d="M 43.2266 32.8906 C 38.0391 26.8115 32.8506 20.7324 27.6621 14.6543 C 26.8262 13.6748 24.9629 13.6748 24.127 14.6543 C 18.9375 20.7324 13.749 26.8115 8.5605 32.8906 C 6.4805 35.3281 10 38.8818 12.0957 36.4258 C 16.6953 31.0381 21.2949 25.6494 25.8945 20.2598 C 30.4932 25.6494 35.0918 31.0381 39.6914 36.4258 C 41.7871 38.8818 45.3066 35.3281 43.2266 32.8906 Z" fill="#ffffff"/>
		</g>
	</g>
</svg>