<?xml version="1.0" encoding="UTF-8" standalone="no"?>
<!-- Generator: Adobe Illustrator 15.1.0, SVG Export Plug-In  -->

<svg
   xmlns:a="http://ns.adobe.com/AdobeSVGViewerExtensions/3.0/"
   xmlns:dc="http://purl.org/dc/elements/1.1/"
   xmlns:cc="http://creativecommons.org/ns#"
   xmlns:rdf="http://www.w3.org/1999/02/22-rdf-syntax-ns#"
   xmlns:svg="http://www.w3.org/2000/svg"
   xmlns="http://www.w3.org/2000/svg"
   xmlns:sodipodi="http://sodipodi.sourceforge.net/DTD/sodipodi-0.dtd"
   xmlns:inkscape="http://www.inkscape.org/namespaces/inkscape"
   version="1.1"
   x="0px"
   y="0px"
   width="24px"
   height="24px"
   viewBox="0 0 24 24"
   style="overflow:visible;enable-background:new 0 0 24 24;"
   xml:space="preserve"
   preserveAspectRatio="xMinYMid meet"
   id="svg2"
   inkscape:version="0.48.2 r9819"
   sodipodi:docname="ukol s opravou SVG.svg"><metadata
   id="metadata76"><rdf:RDF><cc:Work
       rdf:about=""><dc:format>image/svg+xml</dc:format><dc:type
         rdf:resource="http://purl.org/dc/dcmitype/StillImage" /><dc:title></dc:title></cc:Work></rdf:RDF></metadata><sodipodi:namedview
   pagecolor="#ffffff"
   bordercolor="#666666"
   borderopacity="1"
   objecttolerance="10"
   gridtolerance="10"
   guidetolerance="10"
   inkscape:pageopacity="0"
   inkscape:pageshadow="2"
   inkscape:window-width="1920"
   inkscape:window-height="1138"
   id="namedview74"
   showgrid="false"
   inkscape:snap-grids="false"
   inkscape:zoom="1"
   inkscape:cx="20"
   inkscape:cy="11.778704"
   inkscape:window-x="-8"
   inkscape:window-y="-8"
   inkscape:window-maximized="1"
   inkscape:current-layer="svg2"><inkscape:grid
     type="xygrid"
     id="grid6800" /></sodipodi:namedview>
<defs
   id="defs4"><marker
   inkscape:stockid="TriangleOutM"
   orient="auto"
   refY="0.0"
   refX="0.0"
   id="TriangleOutM"
   style="overflow:visible"><path
     id="path4269"
     d="M 5.77,0.0 L -2.88,5.0 L -2.88,-5.0 L 5.77,0.0 z "
     style="fill-rule:evenodd;stroke:#000000;stroke-width:1.0pt;marker-start:none"
     transform="scale(0.4)" /></marker><marker
   inkscape:stockid="EmptyTriangleOutL"
   orient="auto"
   refY="0.0"
   refX="0.0"
   id="EmptyTriangleOutL"
   style="overflow:visible"><path
     id="path4284"
     d="M 5.77,0.0 L -2.88,5.0 L -2.88,-5.0 L 5.77,0.0 z "
     style="fill-rule:evenodd;fill:#FFFFFF;stroke:#000000;stroke-width:1.0pt;marker-start:none"
     transform="scale(0.8) translate(-6,0)" /></marker><marker
   inkscape:stockid="TriangleOutL"
   orient="auto"
   refY="0.0"
   refX="0.0"
   id="TriangleOutL"
   style="overflow:visible"><path
     id="path4266"
     d="M 5.77,0.0 L -2.88,5.0 L -2.88,-5.0 L 5.77,0.0 z "
     style="fill-rule:evenodd;stroke:#000000;stroke-width:1.0pt;marker-start:none"
     transform="scale(0.8)" /></marker><marker
   inkscape:stockid="Arrow1Lend"
   orient="auto"
   refY="0.0"
   refX="0.0"
   id="Arrow1Lend"
   style="overflow:visible;"><path
     id="path4126"
     d="M 0.0,0.0 L 5.0,-5.0 L -12.5,0.0 L 5.0,5.0 L 0.0,0.0 z "
     style="fill-rule:evenodd;stroke:#000000;stroke-width:1.0pt;marker-start:none;"
     transform="scale(0.8) rotate(180) translate(12.5,0)" /></marker>
</defs>
<linearGradient
   id="SVGID_1_"
   gradientUnits="userSpaceOnUse"
   x1="14.0054"
   y1="0"
   x2="14.0054"
   y2="20.0005">
	<stop
   offset="0"
   style="stop-color:#95BFF8"
   id="stop7" />
	<stop
   offset="0.5569"
   style="stop-color:#84ADEF"
   id="stop9" />
	<stop
   offset="1"
   style="stop-color:#7CA4EB"
   id="stop11" />
	<a:midPointStop
   offset="0"
   style="stop-color:#95BFF8" />
	<a:midPointStop
   offset="0.4"
   style="stop-color:#95BFF8" />
	<a:midPointStop
   offset="1"
   style="stop-color:#7CA4EB" />
</linearGradient>
<polygon
   style="fill:url(#SVGID_1_);"
   points="16.3,0 15.4,0 6.7,0 6,0 6,20 6.7,20 21.7,20 22,20 22,6.6 "
   id="polygon13" />
<linearGradient
   id="SVGID_2_"
   gradientUnits="userSpaceOnUse"
   x1="14.0054"
   y1="1"
   x2="14.0054"
   y2="19.0005">
	<stop
   offset="0"
   style="stop-color:#E7F4FC"
   id="stop16" />
	<stop
   offset="1"
   style="stop-color:#DEEFFC"
   id="stop18" />
	<a:midPointStop
   offset="0"
   style="stop-color:#E7F4FC" />
	<a:midPointStop
   offset="0.5"
   style="stop-color:#E7F4FC" />
	<a:midPointStop
   offset="1"
   style="stop-color:#DEEFFC" />
</linearGradient>
<polygon
   style="fill:url(#SVGID_2_);"
   points="7,19 7,1 15.8,1 21,6.9 21,19 "
   id="polygon20" />
<linearGradient
   id="SVGID_3_"
   gradientUnits="userSpaceOnUse"
   x1="14.0054"
   y1="2"
   x2="14.0054"
   y2="18.0005">
	<stop
   offset="0"
   style="stop-color:#CEE9F9"
   id="stop23" />
	<stop
   offset="1"
   style="stop-color:#BBDFF8"
   id="stop25" />
	<a:midPointStop
   offset="0"
   style="stop-color:#CEE9F9" />
	<a:midPointStop
   offset="0.5"
   style="stop-color:#CEE9F9" />
	<a:midPointStop
   offset="1"
   style="stop-color:#BBDFF8" />
</linearGradient>
<polygon
   style="fill:url(#SVGID_3_);"
   points="8,18 8,2 15.4,2 20,7.3 20,18 "
   id="polygon27" />
<linearGradient
   id="SVGID_4_"
   gradientUnits="userSpaceOnUse"
   x1="18.3101"
   y1="0"
   x2="18.3101"
   y2="7.7852">
	<stop
   offset="0"
   style="stop-color:#95BFF8"
   id="stop30" />
	<stop
   offset="0.5569"
   style="stop-color:#84ADEF"
   id="stop32" />
	<stop
   offset="1"
   style="stop-color:#7CA4EB"
   id="stop34" />
	<a:midPointStop
   offset="0"
   style="stop-color:#95BFF8" />
	<a:midPointStop
   offset="0.4"
   style="stop-color:#95BFF8" />
	<a:midPointStop
   offset="1"
   style="stop-color:#7CA4EB" />
</linearGradient>
<path
   style="fill:url(#SVGID_4_);"
   d="M14.8,7.5c0,0,5.2-1.3,7.2,0.3c0-0.1,0-1.2,0-1.2L16.2,0c0,0-1.5,0-1.6,0  C16.8,3,14.8,7.5,14.8,7.5z"
   id="path36" />
<linearGradient
   id="SVGID_5_"
   gradientUnits="userSpaceOnUse"
   x1="16.3003"
   y1="6.1616"
   x2="18.5911"
   y2="3.8708">
	<stop
   offset="0"
   style="stop-color:#E7F4FC"
   id="stop39" />
	<stop
   offset="0.5181"
   style="stop-color:#E5F3FC"
   id="stop41" />
	<stop
   offset="0.7045"
   style="stop-color:#DEF0FB"
   id="stop43" />
	<stop
   offset="0.8371"
   style="stop-color:#D3EBFA"
   id="stop45" />
	<stop
   offset="0.872"
   style="stop-color:#CEE9F9"
   id="stop47" />
	<stop
   offset="1"
   style="stop-color:#BDD8F0"
   id="stop49" />
	<a:midPointStop
   offset="0"
   style="stop-color:#E7F4FC" />
	<a:midPointStop
   offset="0.87"
   style="stop-color:#E7F4FC" />
	<a:midPointStop
   offset="0.872"
   style="stop-color:#CEE9F9" />
	<a:midPointStop
   offset="0.5"
   style="stop-color:#CEE9F9" />
	<a:midPointStop
   offset="1"
   style="stop-color:#BDD8F0" />
</linearGradient>
<path
   style="fill:url(#SVGID_5_);"
   d="M16.3,6.2c0.3-1.2,0.5-2.9,0.1-4.4l4,4.4C20,6.1,19.4,6,18.8,6C17.9,6,17,6.1,16.3,6.2z"
   id="path51" />
<linearGradient
   id="SVGID_6_"
   gradientUnits="userSpaceOnUse"
   x1="11.9673"
   y1="12.167"
   x2="11.9673"
   y2="23.8853">
	<stop
   offset="0"
   style="stop-color:#DDA976"
   id="stop54" />
	<stop
   offset="1"
   style="stop-color:#9F6B37"
   id="stop56" />
	<a:midPointStop
   offset="0"
   style="stop-color:#DDA976" />
	<a:midPointStop
   offset="0.5"
   style="stop-color:#DDA976" />
	<a:midPointStop
   offset="1"
   style="stop-color:#9F6B37" />
</linearGradient>
<path
   style="fill:url(#SVGID_6_);"
   d="M10,18.9c-0.3-2.2,9.4,0.5,9.3-1.4c0-0.8-8.4-3.4-11.4-4.1c-0.9-0.2-6.5-1.2-6.5-1.2  c-0.2,0.1-1.3,3.3-1.4,5.2c0.5,0.3,7.3,6.7,10,6.5c2.7-0.2,14.2-3.6,13.9-4.7C23.3,17.1,10.3,21.3,10,18.9z"
   id="path58" />
<linearGradient
   id="SVGID_7_"
   gradientUnits="userSpaceOnUse"
   x1="11.4893"
   y1="13.2803"
   x2="11.4893"
   y2="22.9336">
	<stop
   offset="0"
   style="stop-color:#FFDDAA"
   id="stop61" />
	<stop
   offset="1"
   style="stop-color:#E3B17E"
   id="stop63" />
	<a:midPointStop
   offset="0"
   style="stop-color:#FFDDAA" />
	<a:midPointStop
   offset="0.5"
   style="stop-color:#FFDDAA" />
	<a:midPointStop
   offset="1"
   style="stop-color:#E3B17E" />
</linearGradient>
<path
   style="fill:url(#SVGID_7_);"
   d="M1.7,17.4C1.4,17.2,1.2,17,1,16.9c0.1-1.2,0.6-2.8,0.9-3.6c1.8,0.3,5.1,0.9,5.7,1  c2.6,0.6,9.4,2.3,9.7,3c0.5,1.1-8.3-1.9-8.1,1.7c0.2,3.5,12.4-0.6,12.7,0.5c0.2,0.7-10.1,3.6-12,3.5C7.9,22.8,3.3,18.8,1.7,17.4z"
   id="path65" />
<linearGradient
   id="SVGID_8_"
   gradientUnits="userSpaceOnUse"
   x1="7.5928"
   y1="14.4141"
   x2="7.5928"
   y2="21.9336">
	<stop
   offset="0"
   style="stop-color:#F1C592"
   id="stop68" />
	<stop
   offset="1"
   style="stop-color:#E1AF7C"
   id="stop70" />
	<a:midPointStop
   offset="0"
   style="stop-color:#F1C592" />
	<a:midPointStop
   offset="0.5"
   style="stop-color:#F1C592" />
	<a:midPointStop
   offset="1"
   style="stop-color:#E1AF7C" />
</linearGradient>
<path
   style="fill:url(#SVGID_8_);"
   d="M10.1,21.9c-0.8-0.1-2.8-1-7.6-5.2l-0.3-0.3c0.1-0.7,0.3-1.4,0.5-2.1c2.1,0.4,4.3,0.8,4.7,0.9  c1.5,0.4,2.7,0.7,3.8,0.9c-1,0.1-1.8,0.4-2.3,1c-0.3,0.3-0.7,0.9-0.6,1.9c0.1,1.1,0.8,2.4,4,2.4c0.3,0,0.6,0,0.9,0  C11.8,21.7,10.7,21.9,10.1,21.9L10.1,21.9z"
   id="path72" />
<path
   style="fill:none;stroke:#bf3b08;stroke-width:1.99999988;stroke-linecap:round;stroke-linejoin:round;stroke-miterlimit:4;stroke-opacity:1;stroke-dasharray:none;marker-start:none;marker-end:none"
   d="m 16.319143,11.95759 c 0,0 -4.927101,0.876805 -6.3458874,-1.013825 C 8.9064156,9.5221265 8.7030457,6.9381203 9.885692,5.5540186 11.077184,4.1595642 14.188476,4.9126189 14.188476,4.9126189 l -0.01751,-0.011781"
   id="path3166"
   inkscape:connector-curvature="0"
   sodipodi:nodetypes="csscc" /><path
   style="fill:none;stroke:#bf3b08;stroke-width:2;stroke-linecap:round;stroke-linejoin:round;stroke-miterlimit:4;stroke-opacity:1;stroke-dasharray:none"
   d="m 15.625002,9.3437499 3.351459,2.5757781 -3.317261,2.549222 0,0"
   id="path6802"
   inkscape:connector-curvature="0" /></svg>