<?xml version="1.0" standalone="no"?>
<!-- Generator: Adobe Fireworks 10, Export SVG Extension by Aaron Beall (http://fireworks.abeall.com) . Version: 0.6.1  -->
<!DOCTYPE svg PUBLIC "-//W3C//DTD SVG 1.1//EN" "http://www.w3.org/Graphics/SVG/1.1/DTD/svg11.dtd">
<svg id="Untitled-Page%201" viewBox="0 0 21 21" style="background-color:#ffffff00" version="1.1"
	xmlns="http://www.w3.org/2000/svg" xmlns:xlink="http://www.w3.org/1999/xlink" xml:space="preserve"
	x="0px" y="0px" width="21px" height="21px"
>
	<g id="Layer%201">
		<g>
			<g>
				<path d="M 10.4707 4.6509 C 10.8398 4.6509 11.1563 4.7847 11.4219 5.0518 C 11.6855 5.3193 11.8174 5.6436 11.8174 6.0234 C 11.8174 6.3989 11.6865 6.7192 11.4258 6.9839 C 11.1641 7.2485 10.8516 7.3809 10.4863 7.3809 C 10.1133 7.3809 9.793 7.2461 9.5283 6.9766 C 9.2656 6.7061 9.1328 6.3784 9.1328 5.9932 C 9.1328 5.623 9.2646 5.3066 9.5254 5.0439 C 9.7852 4.7822 10.1016 4.6509 10.4707 4.6509 ZM 9.418 8.1064 L 11.5244 8.1064 L 11.5244 16.4976 L 9.418 16.4976 L 9.418 8.1064 Z" fill="#6c6d6f"/>
			</g>
			<path d="M 20.4248 10.5742 C 20.4248 16.0693 15.9697 20.5239 10.4746 20.5239 C 4.9795 20.5239 0.5254 16.0693 0.5254 10.5742 C 0.5254 5.0791 4.9795 0.6245 10.4746 0.6245 C 15.9697 0.6245 20.4248 5.0791 20.4248 10.5742 Z" stroke="#6c6d6f" stroke-width="1" fill="none"/>
		</g>
	</g>
</svg>